<?xml version="1.0" encoding="iso-8859-1"?>
<!-- Generator: Adobe Illustrator 19.0.0, SVG Export Plug-In . SVG Version: 6.00 Build 0)  -->
<svg version="1.1" id="Layer_1" xmlns="http://www.w3.org/2000/svg" xmlns:xlink="http://www.w3.org/1999/xlink" x="0px" y="0px"
	 viewBox="0 0 512 512" style="enable-background:new 0 0 512 512;" xml:space="preserve">
<g>
	<g>
		<path d="M368.281,89.825c-52.098,0-94.316,42.218-94.316,94.316v175.158h188.632V184.14
			C462.596,132.042,420.379,89.825,368.281,89.825z"/>
	</g>
</g>
<g>
	<g>
		<rect x="273.965" y="377.263" width="188.632" height="53.895"/>
	</g>
</g>
<g>
	<g>
		<path d="M273.965,449.123v44.912c0,9.881,8.084,17.965,17.965,17.965h152.702c9.881,0,17.965-8.084,17.965-17.965v-44.912H273.965
			z"/>
	</g>
</g>
<g>
	<g>
		<path d="M229.053,314.386v-80.842h-17.965V14.372C211.088,6.288,204.8,0,196.716,0C130.246,0,76.351,53.895,76.351,120.365
			v113.179H58.386v80.842h-8.982v44.912h188.632v-44.912H229.053z M175.158,36.828c4.491-0.898,9.881,1.797,10.779,7.186
			c0.898,4.491-1.797,9.881-7.186,10.779c-26.947,6.288-50.302,42.218-53.895,70.063c-0.898,4.491-4.491,8.084-8.982,8.084h-0.898
			c-4.491-0.898-8.084-5.389-8.084-9.881C111.382,88.028,139.228,44.912,175.158,36.828z M211.088,314.386H76.351v-62.877h134.737
			V314.386z"/>
	</g>
</g>
<g>
	<g>
		<path d="M49.404,377.263v116.772c0,9.881,8.084,17.965,17.965,17.965H220.07c9.881,0,17.965-8.084,17.965-17.965V377.263H49.404z"
			/>
	</g>
</g>
<g>
</g>
<g>
</g>
<g>
</g>
<g>
</g>
<g>
</g>
<g>
</g>
<g>
</g>
<g>
</g>
<g>
</g>
<g>
</g>
<g>
</g>
<g>
</g>
<g>
</g>
<g>
</g>
<g>
</g>
</svg>
